<svg width="116" height="116" viewBox="0 0 116 116" fill="none" xmlns="http://www.w3.org/2000/svg">
<path d="M57.9998 102.429C82.6916 102.429 102.708 82.5446 102.708 58.0162C102.708 33.4879 82.6916 13.6038 57.9998 13.6038C33.3081 13.6038 13.2915 33.4879 13.2915 58.0162C13.2915 82.5446 33.3081 102.429 57.9998 102.429Z" stroke="#484848" stroke-width="4" stroke-linecap="round" stroke-linejoin="round"/>
<path d="M66.8443 15.3323C66.6993 17.4449 65.7327 19.4134 64.2827 20.9498C62.7843 22.5343 60.561 23.1105 59.111 24.6949C58.096 25.8472 57.8543 27.4317 58.1443 28.9201C58.531 30.6486 59.7393 31.9449 60.126 33.6254C60.5127 35.3539 60.126 37.0824 60.2227 38.8589C60.3193 40.8274 60.5126 42.844 60.416 44.8126C60.271 48.5576 57.8543 51.9186 54.4226 53.407C52.9726 54.0311 51.281 54.4152 50.266 55.6636C49.2993 56.8159 49.2026 58.4484 48.3326 59.6487C47.366 61.0891 45.3843 61.8093 43.6926 61.2812C42.0493 60.801 40.9376 59.3606 39.5359 58.4964C37.9409 57.5361 36.0076 57.152 34.1226 57.104C32.141 57.056 30.111 57.3921 28.1293 57.6802C24.2627 58.3043 19.7676 58.9765 16.4326 56.4798" stroke="#484848" stroke-width="4" stroke-linecap="round" stroke-linejoin="round"/>
<path d="M53.0693 98.4435C52.9726 96.475 52.7793 94.4584 52.876 92.4898C53.021 88.7448 55.4376 85.3838 58.8692 83.8954C60.3192 83.2713 62.0109 82.8871 63.0259 81.6388C63.9926 80.4865 64.0893 78.854 64.9593 77.6537C65.926 76.2133 67.9076 75.4931 69.5993 76.0212C71.2426 76.5014 72.3543 77.9418 73.7559 78.806C75.3509 79.7663 77.2843 80.1504 79.1693 80.1984C81.151 80.2464 83.1809 79.9103 85.1626 79.6222C89.0293 78.9981 92.8377 77.7017 96.1727 80.1984" stroke="#484848" stroke-width="4" stroke-linecap="round" stroke-linejoin="round"/>
</svg>
